<svg data-v-fde0c5aa="" xmlns="http://www.w3.org/2000/svg" viewBox="0 0 300 300" class="iconLeft"><!----><defs data-v-fde0c5aa=""><!----></defs><rect data-v-fde0c5aa="" fill="transparent" x="0" y="0" width="300px" height="300px" class="logo-background-square"></rect><defs data-v-fde0c5aa=""><!----></defs><g data-v-fde0c5aa="" id="18b83363-8228-4526-8d5f-22ab35b8fdff" fill="#000000" transform="matrix(1.1475067976732485,0,0,1.1475067976732485,77.76444121817795,139.23638665367707)"><path d="M6.04 12.74C8.12 12.74 9.92 11.57 10.82 9.85L8.82 8.82C8.31 9.82 7.28 10.48 6.04 10.48C4.27 10.48 2.92 9.12 2.92 7.35C2.92 5.58 4.27 4.22 6.04 4.22C7.28 4.22 8.31 4.88 8.82 5.88L10.82 4.85C9.92 3.13 8.12 1.96 6.04 1.96C3.06 1.96 0.65 4.38 0.65 7.35C0.65 10.33 3.06 12.74 6.04 12.74ZM15.72 12.74C18.06 12.74 19.60 11.20 19.60 9.10C19.60 7.00 18.06 5.46 15.72 5.46C13.37 5.46 11.81 7.00 11.81 9.10C11.81 11.20 13.37 12.74 15.72 12.74ZM15.72 10.76C14.75 10.75 14.05 10.05 14.05 9.10C14.05 8.16 14.75 7.46 15.72 7.44C16.66 7.46 17.38 8.16 17.38 9.10C17.38 10.05 16.66 10.75 15.72 10.76ZM29.54 5.46C28.54 5.46 27.77 5.92 27.34 6.69C26.93 5.95 26.23 5.46 25.34 5.46C24.54 5.46 23.89 5.85 23.43 6.46L23.43 5.60L21.19 5.60L21.19 12.60L23.43 12.60L23.43 8.54C23.43 8.03 23.75 7.44 24.43 7.44C25.04 7.44 25.45 7.93 25.45 8.54L25.45 12.60L27.69 12.60L27.69 8.54C27.69 8.03 28.00 7.44 28.68 7.44C29.30 7.44 29.72 7.93 29.72 8.54L29.72 12.60L31.94 12.60L31.94 8.17C31.94 6.55 31.08 5.46 29.54 5.46ZM42.21 5.46C41.21 5.46 40.44 5.92 40.01 6.69C39.60 5.95 38.90 5.46 38.01 5.46C37.21 5.46 36.56 5.85 36.10 6.46L36.10 5.60L33.86 5.60L33.86 12.60L36.10 12.60L36.10 8.54C36.10 8.03 36.42 7.44 37.10 7.44C37.71 7.44 38.12 7.93 38.12 8.54L38.12 12.60L40.36 12.60L40.36 8.54C40.36 8.03 40.67 7.44 41.35 7.44C41.97 7.44 42.39 7.93 42.39 8.54L42.39 12.60L44.61 12.60L44.61 8.17C44.61 6.55 43.75 5.46 42.21 5.46ZM49.67 12.74C51.78 12.74 52.96 11.64 52.96 9.92L52.96 5.60L50.73 5.60L50.73 9.63C50.73 10.29 50.28 10.76 49.67 10.76C49.07 10.76 48.62 10.29 48.62 9.63L48.62 5.60L46.38 5.60L46.38 9.92C46.38 11.64 47.55 12.74 49.67 12.74ZM59.12 5.46C58.31 5.46 57.61 5.85 57.12 6.46L57.12 5.60L54.88 5.60L54.88 12.60L57.12 12.60L57.12 8.54C57.12 7.91 57.65 7.44 58.29 7.44C58.94 7.44 59.40 7.91 59.40 8.54L59.40 12.60L61.62 12.60L61.62 8.17C61.62 6.63 60.50 5.46 59.12 5.46ZM64.70 4.43C65.36 4.43 65.92 3.87 65.92 3.20C65.92 2.52 65.36 1.98 64.70 1.98C64.03 1.98 63.47 2.52 63.47 3.20C63.47 3.87 64.03 4.43 64.70 4.43ZM63.58 12.60L65.80 12.60L65.80 5.60L63.58 5.60ZM72.14 7.33L72.14 5.60L70.47 5.60L70.47 2.91L68.25 2.91L68.25 5.60L67.08 5.60L67.08 7.33L68.25 7.33L68.25 10.10C68.25 11.59 69.51 12.74 71.00 12.74C71.47 12.74 71.94 12.64 72.12 12.51L72.12 10.78L71.28 10.78C70.81 10.78 70.47 10.41 70.47 9.84L70.47 7.33ZM78.19 5.60L76.48 10.24L74.73 5.60L72.40 5.60L75.32 12.76L73.68 16.80L76.02 16.80L80.50 5.60ZM85.66 12.60L89.13 12.60C92.02 12.60 94.38 10.26 94.38 7.35C94.38 4.45 92.02 2.10 89.13 2.10L85.66 2.10ZM87.97 10.55L87.97 4.15L89.11 4.15C90.77 4.15 92.07 5.53 92.07 7.35C92.07 9.17 90.77 10.55 89.11 10.55ZM97.21 4.43C97.88 4.43 98.44 3.87 98.44 3.20C98.44 2.52 97.88 1.98 97.21 1.98C96.55 1.98 95.99 2.52 95.99 3.20C95.99 3.87 96.55 4.43 97.21 4.43ZM96.09 12.60L98.32 12.60L98.32 5.60L96.09 5.60ZM103.85 12.74C105.95 12.74 107.38 11.52 107.68 9.77L105.37 9.77C105.14 10.36 104.56 10.75 103.85 10.76C102.88 10.75 102.18 10.05 102.18 9.10C102.18 8.16 102.88 7.46 103.85 7.44C104.56 7.46 105.14 7.84 105.37 8.44L107.68 8.44C107.38 6.69 105.95 5.46 103.85 5.46C101.50 5.46 99.94 7.00 99.94 9.10C99.94 11.20 101.50 12.74 103.85 12.74ZM113.33 7.33L113.33 5.60L111.67 5.60L111.67 2.91L109.45 2.91L109.45 5.60L108.27 5.60L108.27 7.33L109.45 7.33L109.45 10.10C109.45 11.59 110.71 12.74 112.19 12.74C112.67 12.74 113.14 12.64 113.31 12.51L113.31 10.78L112.47 10.78C112.00 10.78 111.67 10.41 111.67 9.84L111.67 7.33ZM115.87 4.43C116.53 4.43 117.09 3.87 117.09 3.20C117.09 2.52 116.53 1.98 115.87 1.98C115.20 1.98 114.64 2.52 114.64 3.20C114.64 3.87 115.20 4.43 115.87 4.43ZM114.75 12.60L116.97 12.60L116.97 5.60L114.75 5.60ZM122.50 12.74C124.85 12.74 126.39 11.20 126.39 9.10C126.39 7.00 124.85 5.46 122.50 5.46C120.16 5.46 118.60 7.00 118.60 9.10C118.60 11.20 120.16 12.74 122.50 12.74ZM122.50 10.76C121.54 10.75 120.84 10.05 120.84 9.10C120.84 8.16 121.54 7.46 122.50 7.44C123.45 7.46 124.16 8.16 124.16 9.10C124.16 10.05 123.45 10.75 122.50 10.76ZM132.21 5.46C131.41 5.46 130.71 5.85 130.22 6.46L130.22 5.60L127.98 5.60L127.98 12.60L130.22 12.60L130.22 8.54C130.22 7.91 130.74 7.44 131.39 7.44C132.04 7.44 132.49 7.91 132.49 8.54L132.49 12.60L134.72 12.60L134.72 8.17C134.72 6.63 133.60 5.46 132.21 5.46ZM144.45 10.78C144.15 10.78 143.83 10.68 143.83 10.10L143.83 5.60L141.61 5.60L141.61 6.21C141.09 5.74 140.42 5.46 139.62 5.46C137.67 5.46 136.15 7.07 136.15 9.10C136.15 11.13 137.67 12.74 139.62 12.74C140.63 12.74 141.45 12.29 142.01 11.55C142.45 12.27 143.22 12.74 144.17 12.74C144.39 12.74 144.60 12.67 144.76 12.60L144.76 10.78ZM140.05 10.76C139.13 10.76 138.39 10.03 138.39 9.10C138.39 8.17 139.13 7.44 140.05 7.44C140.96 7.44 141.72 8.17 141.72 9.10C141.72 10.03 140.96 10.76 140.05 10.76ZM150.25 5.46C149.43 5.46 148.75 5.88 148.30 6.56L148.30 5.60L146.06 5.60L146.06 12.60L148.30 12.60L148.30 9.26C148.30 8.10 149.08 7.44 150.19 7.44C150.45 7.44 150.68 7.47 150.83 7.51L150.83 5.53C150.68 5.48 150.47 5.46 150.25 5.46ZM156.50 5.60L154.79 10.24L153.04 5.60L150.71 5.60L153.63 12.76L151.99 16.80L154.33 16.80L158.81 5.60Z"></path></g><defs data-v-fde0c5aa=""><linearGradient data-v-fde0c5aa="" gradientTransform="rotate(25)" id="f27dc376-3b38-49ef-8ff4-53897df20795" x1="0%" y1="0%" x2="100%" y2="0%"><stop data-v-fde0c5aa="" offset="0%" stop-color="#41E296" stop-opacity="1"></stop><stop data-v-fde0c5aa="" offset="100%" stop-color="#00C4EE" stop-opacity="1"></stop></linearGradient></defs><g data-v-fde0c5aa="" id="2ee4d94f-ce14-4ffc-9191-6525dd8421a6" stroke="none" fill="url(#f27dc376-3b38-49ef-8ff4-53897df20795)" transform="matrix(1.2755160338851805,0,0,1.2755160338851805,40,137.22825003133585)"><ellipse cx="1" cy="11.5" rx="1" ry="1.5"></ellipse><ellipse cx="19" cy="11.5" rx="1" ry="1.5"></ellipse><path d="M8.7 8.8L1.5 6c-.2-.1-.5.1-.5.4V9c1.1 0 2 1.1 2 2.5S2.1 14 1 14v2.8c0 .2.1.3.3.4L8.5 20c.2.1.5-.1.5-.4V9.2c0-.2-.1-.3-.3-.4zM17 11.5c0-1.4.9-2.5 2-2.5V6.4c0-.3-.3-.5-.5-.4l-7.2 2.8c-.2.1-.3.2-.3.4v10.4c0 .3.3.5.5.4l7.2-2.8c.2-.1.3-.2.3-.4V14c-1.1 0-2-1.1-2-2.5z"></path><circle cx="10" cy="3.5" r="3.5"></circle></g><!----></svg>